# xmcd
#
# Track frame offsets:
#	150
#	16025
#	31922
#	46742
#	60570
#	75445
#	91282
#	107167
#	124015
#	139550
#	152680
#	166967
#	184040
#	199300
#	217090
#	236070
#	251867
#	264452
#
# Disc length: 3687 seconds
#
# Revision: 1
# Processed by: cddbd v1.5.1PL0 Copyright (c) Steve Scherf et al.
# Submitted via: audiograbber 1.80
#
DISCID=ec0e6512
DTITLE=Varios - Limpa Banco Volume 3
DYEAR=1900
DGENRE=
TTITLE0=Grupo Candeeiro - Tio Juvencio
TTITLE1=Tchê Barbaridade - Maria Dançadeira
TTITLE2=Grupo Raizes - Fandangueira
TTITLE3=Os Nativos - Baile de Cola Atada
TTITLE4=Grupo Renascença - No Balanço da Vanera
TTITLE5=Quero Quero - Meu Mundo de Domador
TTITLE6=Cheiro de Galpao - Menina Dançadeira
TTITLE7=Os Mateadores - Retoco de Gaita e Pandeiro
TTITLE8=Chiquito - Fungando Poeira
TTITLE9=Gauderios do Vale - Meu Ranchito
TTITLE10=Grupo Surungaço - Pras Guria
TTITLE11=Ivan Vargas - Parto de Campanha
TTITLE12=Os Cabaites - Mexa-Se
TTITLE13=Os Taitas - Vou Pra Dançar
TTITLE14=Berenice Azambuja - E Disso Que o Veio Gosta
TTITLE15=Grupo Reponte - Chega de Lida
TTITLE16=Grupo Tchê Bagual - Vanera Baguala
TTITLE17=Sinuelo da Serra - Vanera Fandangueira
EXTD=Coletanea de Vanerao (Musica Gauchesca)
EXTT0=
EXTT1=
EXTT2=
EXTT3=
EXTT4=
EXTT5=
EXTT6=
EXTT7=
EXTT8=
EXTT9=
EXTT10=
EXTT11=
EXTT12=
EXTT13=
EXTT14=
EXTT15=
EXTT16=
EXTT17=
PLAYORDER=
